<svg width="100" height="30" xmlns="http://www.w3.org/2000/svg">
  <!-- Background grid for pixel alignment (optional) -->
  <!-- C -->
  <rect x="5" y="5" width="14" height="2" fill="#FF0000"/>
  <rect x="3" y="7" width="2" height="14" fill="#FF0000"/>
  <rect x="5" y="21" width="14" height="2" fill="#FF0000"/>
  <rect x="17" y="7" width="2" height="14" fill="#FF0000"/>
  
  <!-- T -->
  <rect x="25" y="5" width="14" height="2" fill="#FF0000"/>
  <rect x="31" y="7" width="2" height="16" fill="#FF0000"/>
  
  <!-- M -->
  <rect x="43" y="7" width="2" height="16" fill="#FF0000"/>
  <rect x="43" y="5" width="16" height="2" fill="#FF0000"/>
  <rect x="57" y="7" width="2" height="16" fill="#FF0000"/>
  <rect x="49" y="12" width="2" height="5" fill="#FF0000"/>
  <rect x="53" y="16" width="2" height="1" fill="#FF0000"/>
  <rect x="47" y="13" width="2" height="3" fill="#FF0000"/>
  <rect x="55" y="14" width="2" height="2" fill="#FF0000"/>
  
  <!-- C -->
  <rect x="65" y="5" width="14" height="2" fill="#FF0000"/>
  <rect x="63" y="7" width="2" height="14" fill="#FF0000"/>
  <rect x="65" y="21" width="14" height="2" fill="#FF0000"/>
  <rect x="77" y="7" width="2" height="14" fill="#FF0000"/>
</svg>